<svg width="20" height="24" viewBox="0 0 20 24" fill="none" xmlns="http://www.w3.org/2000/svg">
<path id="seta" d="M18.7852 9.86246L19.0656 10.1477L19.3508 9.86718L19.0703 9.58199L18.7852 9.86246ZM10.2852 1.21967L9.99997 1.50014V1.50014L10.2852 1.21967ZM18.2148 10.4234L17.9296 10.7039L18.2101 10.9891L18.4953 10.7086L18.2148 10.4234ZM10.4 2.47732L10.6852 2.19684L9.99997 1.50014V2.47732H10.4ZM10.4 23.4999V23.8999H10.8V23.4999H10.4ZM9.59997 23.4999H9.19997V23.8999H9.59997V23.4999ZM9.59997 2.47732L9.99997 2.47732V1.50014L9.31478 2.19684L9.59997 2.47732ZM1.78516 10.4234L1.50468 10.7086L1.78987 10.9891L2.07034 10.7039L1.78516 10.4234ZM1.21478 9.86246L0.92959 9.58199L0.649113 9.86718L0.934301 10.1477L1.21478 9.86246ZM9.71478 1.21967L9.99997 1.50014V1.50014L9.71478 1.21967ZM9.99997 0.929688L10.2852 0.649211L9.99997 0.35923L9.71478 0.649211L9.99997 0.929688ZM19.0703 9.58199L10.5703 0.93919L9.99997 1.50014L18.5 10.1429L19.0703 9.58199ZM18.4953 10.7086L19.0656 10.1477L18.5047 9.57728L17.9343 10.1382L18.4953 10.7086ZM10.1148 2.7578L17.9296 10.7039L18.5 10.1429L10.6852 2.19684L10.1148 2.7578ZM10.8 23.4999L10.8 2.47732H9.99997L9.99997 23.4999H10.8ZM9.59997 23.8999H10.4V23.0999H9.59997V23.8999ZM9.19997 2.47732L9.19997 23.4999H9.99997L9.99997 2.47732L9.19997 2.47732ZM2.07034 10.7039L9.88516 2.7578L9.31478 2.19684L1.49997 10.1429L2.07034 10.7039ZM0.934301 10.1477L1.50468 10.7086L2.06563 10.1382L1.49526 9.57728L0.934301 10.1477ZM9.42959 0.939191L0.92959 9.58199L1.49997 10.1429L9.99997 1.50014L9.42959 0.939191ZM9.71478 0.649211L9.42959 0.939191L9.99997 1.50014L10.2852 1.21016L9.71478 0.649211ZM10.5703 0.939191L10.2852 0.649211L9.71478 1.21016L9.99997 1.50014L10.5703 0.939191Z" fill="#15573F"/>
</svg>
